<?xml version="1.0" encoding="UTF-8" standalone="no"?>
<!DOCTYPE svg PUBLIC "-//W3C//DTD SVG 1.1//EN"
 "http://www.w3.org/Graphics/SVG/1.1/DTD/svg11.dtd">
<!-- Generated by graphviz version 2.38.0 (20140413.2041)
 -->
<!-- Title: ERDiagram Pages: 1 -->
<svg width="393pt" height="426pt"
 viewBox="0.00 0.00 393.00 426.00" xmlns="http://www.w3.org/2000/svg" xmlns:xlink="http://www.w3.org/1999/xlink">
<g id="graph0" class="graph" transform="scale(1 1) rotate(0) translate(4 422)">
<title>ERDiagram</title>
<polygon fill="white" stroke="none" points="-4,4 -4,-422 389,-422 389,4 -4,4"/>
<g id="clust2" class="cluster"><title>cluster_1</title>
<polygon fill="white" stroke="black" points="193,-8 193,-155 377,-155 377,-8 193,-8"/>
<text text-anchor="middle" x="285" y="-139.8" font-family="Times New Roman,serif" font-size="14.00">Person</text>
</g>
<g id="clust1" class="cluster"><title>cluster_0</title>
<polygon fill="white" stroke="black" points="8,-163 8,-410 184,-410 184,-163 8,-163"/>
<text text-anchor="middle" x="96" y="-394.8" font-family="Times New Roman,serif" font-size="14.00">Sales</text>
</g>
<!-- SalesTaxRate -->
<g id="node1" class="node"><title>SalesTaxRate</title>
<polygon fill="aliceblue" stroke="none" points="176,-379 16,-379 16,-171 176,-171 176,-379"/>
<polygon fill="pink" stroke="none" points="24,-350 24,-375 168,-375 168,-350 24,-350"/>
<polygon fill="none" stroke="#1c86ee" points="24,-350 24,-375 168,-375 168,-350 24,-350"/>
<text text-anchor="start" x="57.5" y="-358.8" font-family="Times New Roman,serif" font-size="14.00">SalesTaxRate</text>
<polygon fill="none" stroke="#1c86ee" points="24,-325 24,-350 168,-350 168,-325 24,-325"/>
<text text-anchor="start" x="29" y="-333.8" font-family="Times New Roman,serif" font-size="14.00">SalesTaxRateID:int</text>
<polygon fill="none" stroke="#1c86ee" points="24,-300 24,-325 168,-325 168,-300 24,-300"/>
<text text-anchor="start" x="29" y="-308.8" font-family="Times New Roman,serif" font-size="14.00">StateProvinceID:int</text>
<polygon fill="none" stroke="#1c86ee" points="24,-275 24,-300 168,-300 168,-275 24,-275"/>
<text text-anchor="start" x="29" y="-283.8" font-family="Times New Roman,serif" font-size="14.00">TaxType:tinyint</text>
<polygon fill="none" stroke="#1c86ee" points="24,-250 24,-275 168,-275 168,-250 24,-250"/>
<text text-anchor="start" x="29" y="-258.8" font-family="Times New Roman,serif" font-size="14.00">TaxRate:smallmoney</text>
<polygon fill="none" stroke="#1c86ee" points="24,-225 24,-250 168,-250 168,-225 24,-225"/>
<text text-anchor="start" x="29" y="-233.8" font-family="Times New Roman,serif" font-size="14.00">Name:nvarchar</text>
<polygon fill="none" stroke="#1c86ee" points="24,-200 24,-225 168,-225 168,-200 24,-200"/>
<text text-anchor="start" x="29" y="-208.8" font-family="Times New Roman,serif" font-size="14.00">rowguid:uniqueidentifier</text>
<polygon fill="none" stroke="#1c86ee" points="24,-175 24,-200 168,-200 168,-175 24,-175"/>
<text text-anchor="start" x="29" y="-183.8" font-family="Times New Roman,serif" font-size="14.00">ModifiedDate:datetime</text>
</g>
<!-- StateProvince -->
<g id="node3" class="node"><title>StateProvince</title>
<polygon fill="aliceblue" stroke="#1c86ee" points="143,-88 49,-88 49,-52 143,-52 143,-88"/>
<text text-anchor="middle" x="96" y="-66.3" font-family="Times New Roman,serif" font-size="14.00">StateProvince</text>
</g>
<!-- SalesTaxRate&#45;&gt;StateProvince -->
<g id="edge1" class="edge"><title>SalesTaxRate&#45;&gt;StateProvince</title>
<path fill="none" stroke="#000000" d="M96,-170.999C96,-170.999 96,-98.2184 96,-98.2184"/>
<polygon fill="#000000" stroke="#000000" points="99.5001,-98.2184 96,-88.2184 92.5001,-98.2184 99.5001,-98.2184"/>
</g>
<!-- PhoneNumberType -->
<g id="node2" class="node"><title>PhoneNumberType</title>
<polygon fill="aliceblue" stroke="none" points="368.5,-124 201.5,-124 201.5,-16 368.5,-16 368.5,-124"/>
<polygon fill="pink" stroke="none" points="210,-95 210,-120 361,-120 361,-95 210,-95"/>
<polygon fill="none" stroke="#1c86ee" points="210,-95 210,-120 361,-120 361,-95 210,-95"/>
<text text-anchor="start" x="230.5" y="-103.8" font-family="Times New Roman,serif" font-size="14.00">PhoneNumberType</text>
<polygon fill="none" stroke="#1c86ee" points="210,-70 210,-95 361,-95 361,-70 210,-70"/>
<text text-anchor="start" x="215" y="-78.8" font-family="Times New Roman,serif" font-size="14.00">PhoneNumberTypeID:int</text>
<polygon fill="none" stroke="#1c86ee" points="210,-45 210,-70 361,-70 361,-45 210,-45"/>
<text text-anchor="start" x="215" y="-53.8" font-family="Times New Roman,serif" font-size="14.00">Name:nvarchar</text>
<polygon fill="none" stroke="#1c86ee" points="210,-20 210,-45 361,-45 361,-20 210,-20"/>
<text text-anchor="start" x="215" y="-28.8" font-family="Times New Roman,serif" font-size="14.00">ModifiedDate:datetime</text>
</g>
<!-- PersonPhone -->
<g id="node4" class="node"><title>PersonPhone</title>
<polygon fill="aliceblue" stroke="#1c86ee" points="330.5,-293 239.5,-293 239.5,-257 330.5,-257 330.5,-293"/>
<text text-anchor="middle" x="285" y="-271.3" font-family="Times New Roman,serif" font-size="14.00">PersonPhone</text>
</g>
<!-- PersonPhone&#45;&gt;PhoneNumberType -->
<g id="edge2" class="edge"><title>PersonPhone&#45;&gt;PhoneNumberType</title>
<path fill="none" stroke="#000000" d="M285,-256.808C285,-256.808 285,-134.002 285,-134.002"/>
<polygon fill="#000000" stroke="#000000" points="288.5,-134.002 285,-124.002 281.5,-134.002 288.5,-134.002"/>
</g>
</g>
</svg>
