<?xml version="1.0" encoding="UTF-8" standalone="no"?>
<!DOCTYPE svg PUBLIC "-//W3C//DTD SVG 1.1//EN"
 "http://www.w3.org/Graphics/SVG/1.1/DTD/svg11.dtd">
<!-- Generated by graphviz version 2.38.0 (20140413.2041)
 -->
<!-- Title: ERDiagram Pages: 1 -->
<svg width="492pt" height="246pt"
 viewBox="0.00 0.00 492.00 246.00" xmlns="http://www.w3.org/2000/svg" xmlns:xlink="http://www.w3.org/1999/xlink">
<g id="graph0" class="graph" transform="scale(1 1) rotate(0) translate(4 242)">
<title>ERDiagram</title>
<polygon fill="white" stroke="none" points="-4,4 -4,-242 488,-242 488,4 -4,4"/>
<g id="clust1" class="cluster"><title>cluster_0</title>
<polygon fill="white" stroke="black" points="8,-8 8,-230 476,-230 476,-8 8,-8"/>
<text text-anchor="middle" x="242" y="-214.8" font-family="Times New Roman,serif" font-size="14.00">dbo</text>
</g>
<!-- __EFMigrationsHistory -->
<g id="node1" class="node"><title>__EFMigrationsHistory</title>
<polygon fill="aliceblue" stroke="none" points="468,-149 302,-149 302,-66 468,-66 468,-149"/>
<polygon fill="pink" stroke="none" points="310,-119.5 310,-144.5 460,-144.5 460,-119.5 310,-119.5"/>
<polygon fill="none" stroke="#1c86ee" points="310,-119.5 310,-144.5 460,-144.5 460,-119.5 310,-119.5"/>
<text text-anchor="start" x="318.5" y="-128.3" font-family="Times New Roman,serif" font-size="14.00">__EFMigrationsHistory</text>
<polygon fill="none" stroke="#1c86ee" points="310,-94.5 310,-119.5 460,-119.5 460,-94.5 310,-94.5"/>
<text text-anchor="start" x="315" y="-103.3" font-family="Times New Roman,serif" font-size="14.00">MigrationId:nvarchar</text>
<polygon fill="none" stroke="#1c86ee" points="310,-69.5 310,-94.5 460,-94.5 460,-69.5 310,-69.5"/>
<text text-anchor="start" x="315" y="-78.3" font-family="Times New Roman,serif" font-size="14.00">ProductVersion:nvarchar</text>
</g>
<!-- Users -->
<g id="node2" class="node"><title>Users</title>
<polygon fill="aliceblue" stroke="none" points="244,-199 16,-199 16,-16 244,-16 244,-199"/>
<polygon fill="pink" stroke="none" points="24,-169.5 24,-194.5 236,-194.5 236,-169.5 24,-169.5"/>
<polygon fill="none" stroke="#1c86ee" points="24,-169.5 24,-194.5 236,-194.5 236,-169.5 24,-169.5"/>
<text text-anchor="start" x="113.5" y="-178.3" font-family="Times New Roman,serif" font-size="14.00">Users</text>
<polygon fill="none" stroke="#1c86ee" points="24,-144.5 24,-169.5 236,-169.5 236,-144.5 24,-144.5"/>
<text text-anchor="start" x="29" y="-153.3" font-family="Times New Roman,serif" font-size="14.00">Id:int</text>
<polygon fill="none" stroke="#1c86ee" points="24,-119.5 24,-144.5 236,-144.5 236,-119.5 24,-119.5"/>
<text text-anchor="start" x="29" y="-128.3" font-family="Times New Roman,serif" font-size="14.00">UserName:nvarchar</text>
<polygon fill="none" stroke="#1c86ee" points="24,-94.5 24,-119.5 236,-119.5 236,-94.5 24,-94.5"/>
<text text-anchor="start" x="29" y="-103.3" font-family="Times New Roman,serif" font-size="14.00">Password:nvarchar</text>
<polygon fill="none" stroke="#1c86ee" points="24,-69.5 24,-94.5 236,-94.5 236,-69.5 24,-69.5"/>
<text text-anchor="start" x="29" y="-78.3" font-family="Times New Roman,serif" font-size="14.00">IsAdmin:bit</text>
<polygon fill="none" stroke="#1c86ee" points="24,-44.5 24,-69.5 236,-69.5 236,-44.5 24,-44.5"/>
<text text-anchor="start" x="29" y="-53.3" font-family="Times New Roman,serif" font-size="14.00">SERVER_NAME:nvarchar</text>
<polygon fill="none" stroke="#1c86ee" points="24,-19.5 24,-44.5 236,-44.5 236,-19.5 24,-19.5"/>
<text text-anchor="start" x="29" y="-28.3" font-family="Times New Roman,serif" font-size="14.00">CONNECTION_STRING:nvarchar</text>
</g>
</g>
</svg>
