<?xml version="1.0" encoding="UTF-8" standalone="no"?>
<!DOCTYPE svg PUBLIC "-//W3C//DTD SVG 1.1//EN"
 "http://www.w3.org/Graphics/SVG/1.1/DTD/svg11.dtd">
<!-- Generated by graphviz version 2.38.0 (20140413.2041)
 -->
<!-- Title: ERDiagram Pages: 1 -->
<svg width="236pt" height="292pt"
 viewBox="0.00 0.00 236.00 292.00" xmlns="http://www.w3.org/2000/svg" xmlns:xlink="http://www.w3.org/1999/xlink">
<g id="graph0" class="graph" transform="scale(1 1) rotate(0) translate(4 288)">
<title>ERDiagram</title>
<polygon fill="white" stroke="none" points="-4,4 -4,-288 232,-288 232,4 -4,4"/>
<!-- __EFMigrationsHistory -->
<g id="node1" class="node"><title>__EFMigrationsHistory</title>
<polygon fill="aliceblue" stroke="#1c86ee" points="197,-83 31,-83 31,-0 197,-0 197,-83"/>
<polygon fill="lightblue" stroke="none" points="39,-53.5 39,-78.5 189,-78.5 189,-53.5 39,-53.5"/>
<polygon fill="none" stroke="#1c86ee" points="39,-53.5 39,-78.5 189,-78.5 189,-53.5 39,-53.5"/>
<text text-anchor="start" x="47.5" y="-62.3" font-family="Times New Roman,serif" font-size="14.00">__EFMigrationsHistory</text>
<polygon fill="none" stroke="#1c86ee" points="39,-28.5 39,-53.5 189,-53.5 189,-28.5 39,-28.5"/>
<text text-anchor="start" x="44" y="-37.3" font-family="Times New Roman,serif" font-size="14.00">MigrationId:nvarchar</text>
<polygon fill="none" stroke="#1c86ee" points="39,-3.5 39,-28.5 189,-28.5 189,-3.5 39,-3.5"/>
<text text-anchor="start" x="44" y="-12.3" font-family="Times New Roman,serif" font-size="14.00">ProductVersion:nvarchar</text>
</g>
<!-- Users -->
<g id="node2" class="node"><title>Users</title>
<polygon fill="aliceblue" stroke="#1c86ee" points="228,-284 0,-284 0,-101 228,-101 228,-284"/>
<polygon fill="lightblue" stroke="none" points="8,-254.5 8,-279.5 220,-279.5 220,-254.5 8,-254.5"/>
<polygon fill="none" stroke="#1c86ee" points="8,-254.5 8,-279.5 220,-279.5 220,-254.5 8,-254.5"/>
<text text-anchor="start" x="97.5" y="-263.3" font-family="Times New Roman,serif" font-size="14.00">Users</text>
<polygon fill="none" stroke="#1c86ee" points="8,-229.5 8,-254.5 220,-254.5 220,-229.5 8,-229.5"/>
<text text-anchor="start" x="13" y="-238.3" font-family="Times New Roman,serif" font-size="14.00">Id:int</text>
<polygon fill="none" stroke="#1c86ee" points="8,-204.5 8,-229.5 220,-229.5 220,-204.5 8,-204.5"/>
<text text-anchor="start" x="13" y="-213.3" font-family="Times New Roman,serif" font-size="14.00">UserName:nvarchar</text>
<polygon fill="none" stroke="#1c86ee" points="8,-179.5 8,-204.5 220,-204.5 220,-179.5 8,-179.5"/>
<text text-anchor="start" x="13" y="-188.3" font-family="Times New Roman,serif" font-size="14.00">Password:nvarchar</text>
<polygon fill="none" stroke="#1c86ee" points="8,-154.5 8,-179.5 220,-179.5 220,-154.5 8,-154.5"/>
<text text-anchor="start" x="13" y="-163.3" font-family="Times New Roman,serif" font-size="14.00">IsAdmin:bit</text>
<polygon fill="none" stroke="#1c86ee" points="8,-129.5 8,-154.5 220,-154.5 220,-129.5 8,-129.5"/>
<text text-anchor="start" x="13" y="-138.3" font-family="Times New Roman,serif" font-size="14.00">SERVER_NAME:nvarchar</text>
<polygon fill="none" stroke="#1c86ee" points="8,-104.5 8,-129.5 220,-129.5 220,-104.5 8,-104.5"/>
<text text-anchor="start" x="13" y="-113.3" font-family="Times New Roman,serif" font-size="14.00">CONNECTION_STRING:nvarchar</text>
</g>
</g>
</svg>
